<svg width="42" height="48" viewBox="0 0 42 48" fill="none" xmlns="http://www.w3.org/2000/svg">
<path d="M7.94434 10.5098C8.1084 9.92187 8.51172 9.61426 9.1543 9.58691H10.4258C10.7266 9.58691 10.9658 9.69629 11.1436 9.91504C11.335 10.1201 11.458 10.4482 11.5127 10.8994L15.2451 32.1455L20.7412 10.5098C20.9189 9.89453 21.3428 9.58691 22.0127 9.58691H23.2227C23.5645 9.58691 23.8105 9.7168 23.9609 9.97656C24.1113 10.2227 24.1455 10.5303 24.0635 10.8994L16.8857 39.0771C16.7217 39.6924 16.2979 40 15.6143 40H14.1172C13.9121 40 13.7412 39.9385 13.6045 39.8154C13.4678 39.6924 13.3584 39.3232 13.2764 38.708L9.58496 17.5234L4.06836 39.0771C3.9043 39.6924 3.4873 40 2.81738 40H1.58691C1.25879 40 1.01953 39.877 0.869141 39.6309C0.705078 39.3711 0.664062 39.0635 0.746094 38.708L7.94434 10.5098ZM28.1445 9.58691H34.748C37.0039 9.58691 38.7061 10.0654 39.8545 11.0225C41.0029 11.9795 41.5908 13.3877 41.6182 15.2471C41.6455 17.1064 41.3037 19.0205 40.5928 20.9893C39.8818 22.9443 38.8838 24.3867 37.5986 25.3164C36.3135 26.2324 34.8984 26.8135 33.3535 27.0596C31.8086 27.292 30.3115 27.4219 28.8623 27.4492L25.8682 39.0771C25.7041 39.6924 25.2871 40 24.6172 40H23.4072C23.0654 40 22.8193 39.877 22.6689 39.6309C22.5049 39.3711 22.4707 39.0635 22.5664 38.708L29.2314 12.458C28.5342 12.458 28.0352 12.458 27.7344 12.458C27.4473 12.458 27.2148 12.3418 27.0371 12.1094C26.873 11.8633 26.8389 11.583 26.9346 11.2686L27.1807 10.4277C27.2354 10.209 27.3584 10.0176 27.5498 9.85352C27.7549 9.67578 27.9531 9.58691 28.1445 9.58691ZM32.6357 12.499L29.5801 24.5371L31.918 24.4141C34.1602 24.25 35.6299 23.5391 36.3271 22.2812C37.0381 21.0234 37.5303 19.7383 37.8037 18.4258C38.0771 17.0996 38.2139 16.0059 38.2139 15.1445C38.2139 13.4902 37.2637 12.6221 35.3633 12.54C35.0352 12.5127 34.126 12.499 32.6357 12.499Z" fill="white"/>
</svg>
